<svg viewBox="0 0 800 400" xmlns="http://www.w3.org/2000/svg">
  <!-- Background gradient -->
  <defs>
    <linearGradient id="bg-gradient" x1="0%" y1="0%" x2="100%" y2="100%">
      <stop offset="0%" style="stop-color:#e0f7fa;stop-opacity:1" />
      <stop offset="100%" style="stop-color:#b2ebf2;stop-opacity:1" />
    </linearGradient>
  </defs>
  
  <!-- Background rectangle -->
  <rect width="800" height="400" fill="url(#bg-gradient)" />
  
  <!-- Enhanced neural network representation -->
  <g transform="translate(250, 50)">
    <!-- Layer 1 -->
    <circle cx="0" cy="0" r="15" fill="#0097a7" />
    <circle cx="0" cy="60" r="15" fill="#0097a7" />
    <circle cx="0" cy="120" r="15" fill="#0097a7" />
    <circle cx="0" cy="180" r="15" fill="#0097a7" />
    <circle cx="0" cy="240" r="15" fill="#0097a7" />
    <circle cx="0" cy="300" r="15" fill="#0097a7" />
    
    <!-- Layer 2 -->
    <circle cx="100" cy="30" r="15" fill="#0097a7" />
    <circle cx="100" cy="90" r="15" fill="#0097a7" />
    <circle cx="100" cy="150" r="15" fill="#0097a7" />
    <circle cx="100" cy="210" r="15" fill="#0097a7" />
    <circle cx="100" cy="270" r="15" fill="#0097a7" />
    
    <!-- Layer 3 -->
    <circle cx="200" cy="60" r="15" fill="#0097a7" />
    <circle cx="200" cy="120" r="15" fill="#0097a7" />
    <circle cx="200" cy="180" r="15" fill="#0097a7" />
    <circle cx="200" cy="240" r="15" fill="#0097a7" />
    
    <!-- Layer 4 -->
    <circle cx="300" cy="90" r="15" fill="#0097a7" />
    <circle cx="300" cy="150" r="15" fill="#0097a7" />
    <circle cx="300" cy="210" r="15" fill="#0097a7" />
    
    <!-- Layer 5 -->
    <circle cx="400" cy="150" r="15" fill="#0097a7" />
    
    <!-- Connections from layer 1 to 2 -->
    <g stroke="#00838f" stroke-width="1.5" opacity="0.6">
      <!-- First node connections -->
      <line x1="15" y1="0" x2="85" y2="30" />
      <line x1="15" y1="0" x2="85" y2="90" />
      <line x1="15" y1="0" x2="85" y2="150" />
      <line x1="15" y1="0" x2="85" y2="210" />
      <line x1="15" y1="0" x2="85" y2="270" />
      
      <!-- Second node connections -->
      <line x1="15" y1="60" x2="85" y2="30" />
      <line x1="15" y1="60" x2="85" y2="90" />
      <line x1="15" y1="60" x2="85" y2="150" />
      <line x1="15" y1="60" x2="85" y2="210" />
      <line x1="15" y1="60" x2="85" y2="270" />
      
      <!-- Third node connections -->
      <line x1="15" y1="120" x2="85" y2="30" />
      <line x1="15" y1="120" x2="85" y2="90" />
      <line x1="15" y1="120" x2="85" y2="150" />
      <line x1="15" y1="120" x2="85" y2="210" />
      <line x1="15" y1="120" x2="85" y2="270" />
      
      <!-- Fourth node connections -->
      <line x1="15" y1="180" x2="85" y2="30" />
      <line x1="15" y1="180" x2="85" y2="90" />
      <line x1="15" y1="180" x2="85" y2="150" />
      <line x1="15" y1="180" x2="85" y2="210" />
      <line x1="15" y1="180" x2="85" y2="270" />
      
      <!-- Fifth node connections -->
      <line x1="15" y1="240" x2="85" y2="30" />
      <line x1="15" y1="240" x2="85" y2="90" />
      <line x1="15" y1="240" x2="85" y2="150" />
      <line x1="15" y1="240" x2="85" y2="210" />
      <line x1="15" y1="240" x2="85" y2="270" />
      
      <!-- Sixth node connections -->
      <line x1="15" y1="300" x2="85" y2="30" />
      <line x1="15" y1="300" x2="85" y2="90" />
      <line x1="15" y1="300" x2="85" y2="150" />
      <line x1="15" y1="300" x2="85" y2="210" />
      <line x1="15" y1="300" x2="85" y2="270" />
    </g>
    
    <!-- Connections from layer 2 to 3 -->
    <g stroke="#00838f" stroke-width="1.5" opacity="0.6">
      <line x1="115" y1="30" x2="185" y2="60" />
      <line x1="115" y1="30" x2="185" y2="120" />
      <line x1="115" y1="30" x2="185" y2="180" />
      <line x1="115" y1="30" x2="185" y2="240" />
      
      <line x1="115" y1="90" x2="185" y2="60" />
      <line x1="115" y1="90" x2="185" y2="120" />
      <line x1="115" y1="90" x2="185" y2="180" />
      <line x1="115" y1="90" x2="185" y2="240" />
      
      <line x1="115" y1="150" x2="185" y2="60" />
      <line x1="115" y1="150" x2="185" y2="120" />
      <line x1="115" y1="150" x2="185" y2="180" />
      <line x1="115" y1="150" x2="185" y2="240" />
      
      <line x1="115" y1="210" x2="185" y2="60" />
      <line x1="115" y1="210" x2="185" y2="120" />
      <line x1="115" y1="210" x2="185" y2="180" />
      <line x1="115" y1="210" x2="185" y2="240" />
      
      <line x1="115" y1="270" x2="185" y2="60" />
      <line x1="115" y1="270" x2="185" y2="120" />
      <line x1="115" y1="270" x2="185" y2="180" />
      <line x1="115" y1="270" x2="185" y2="240" />
    </g>
    
    <!-- Connections from layer 3 to 4 -->
    <g stroke="#00838f" stroke-width="1.5" opacity="0.6">
      <line x1="215" y1="60" x2="285" y2="90" />
      <line x1="215" y1="60" x2="285" y2="150" />
      <line x1="215" y1="60" x2="285" y2="210" />
      
      <line x1="215" y1="120" x2="285" y2="90" />
      <line x1="215" y1="120" x2="285" y2="150" />
      <line x1="215" y1="120" x2="285" y2="210" />
      
      <line x1="215" y1="180" x2="285" y2="90" />
      <line x1="215" y1="180" x2="285" y2="150" />
      <line x1="215" y1="180" x2="285" y2="210" />
      
      <line x1="215" y1="240" x2="285" y2="90" />
      <line x1="215" y1="240" x2="285" y2="150" />
      <line x1="215" y1="240" x2="285" y2="210" />
    </g>
    
    <!-- Connections from layer 4 to 5 -->
    <g stroke="#00838f" stroke-width="1.5" opacity="0.6">
      <line x1="315" y1="90" x2="385" y2="150" />
      <line x1="315" y1="150" x2="385" y2="150" />
      <line x1="315" y1="210" x2="385" y2="150" />
    </g>
    
    <!-- Active nodes with glow effect -->
    <g>
      <circle cx="0" cy="120" r="18" fill="none" stroke="#4dd0e1" stroke-width="3" opacity="0.7">
        <animate attributeName="opacity" values="0.7;0.3;0.7" dur="3s" repeatCount="indefinite" />
      </circle>
      <circle cx="100" cy="150" r="18" fill="none" stroke="#4dd0e1" stroke-width="3" opacity="0.5">
        <animate attributeName="opacity" values="0.5;0.2;0.5" dur="4s" repeatCount="indefinite" />
      </circle>
      <circle cx="200" cy="120" r="18" fill="none" stroke="#4dd0e1" stroke-width="3" opacity="0.6">
        <animate attributeName="opacity" values="0.6;0.3;0.6" dur="3.5s" repeatCount="indefinite" />
      </circle>
      <circle cx="300" cy="150" r="18" fill="none" stroke="#4dd0e1" stroke-width="3" opacity="0.7">
        <animate attributeName="opacity" values="0.7;0.4;0.7" dur="4.5s" repeatCount="indefinite" />
      </circle>
      <circle cx="400" cy="150" r="18" fill="none" stroke="#4dd0e1" stroke-width="3" opacity="0.8">
        <animate attributeName="opacity" values="0.8;0.4;0.8" dur="3s" repeatCount="indefinite" />
      </circle>
    </g>
    
    <!-- Data flow animation -->
    <g>
      <!-- Layer 1 to 2 flow -->
      <circle cx="0" cy="0" r="3" fill="#26c6da">
        <animate attributeName="cx" values="15;85" dur="2s" begin="0s" repeatCount="indefinite" />
        <animate attributeName="cy" values="0;30" dur="2s" begin="0s" repeatCount="indefinite" />
      </circle>
      
      <!-- Layer 2 to 3 flow -->
      <circle cx="100" cy="90" r="3" fill="#26c6da">
        <animate attributeName="cx" values="115;185" dur="2s" begin="0.5s" repeatCount="indefinite" />
        <animate attributeName="cy" values="90;120" dur="2s" begin="0.5s" repeatCount="indefinite" />
      </circle>
      
      <!-- Layer 3 to 4 flow -->
      <circle cx="200" cy="180" r="3" fill="#26c6da">
        <animate attributeName="cx" values="215;285" dur="2s" begin="1s" repeatCount="indefinite" />
        <animate attributeName="cy" values="180;150" dur="2s" begin="1s" repeatCount="indefinite" />
      </circle>
      
      <!-- Layer 4 to 5 flow -->
      <circle cx="300" cy="150" r="3" fill="#26c6da">
        <animate attributeName="cx" values="315;385" dur="2s" begin="1.5s" repeatCount="indefinite" />
        <animate attributeName="cy" values="150;150" dur="2s" begin="1.5s" repeatCount="indefinite" />
      </circle>
    </g>
  </g>
</svg>
