<?xml version="1.0" encoding="utf-8"?>
<svg viewBox="0 0 24 24" xmlns="http://www.w3.org/2000/svg">
  <defs>
    <!-- Filter for glow effect -->
    <filter id="glow" x="-20%" y="-20%" width="140%" height="140%">
      <feGaussianBlur stdDeviation="0.5" result="blur" />
      <feComposite in="SourceGraphic" in2="blur" operator="over" />
    </filter>
    
    <!-- Gradient definitions -->
    <linearGradient id="blue-gradient" x1="0%" y1="0%" x2="100%" y2="100%">
      <stop offset="0%" stop-color="#4285f4" />
      <stop offset="100%" stop-color="#337af3" />
      <animate attributeName="x1" values="0%;100%;0%" dur="7s" repeatCount="indefinite" />
      <animate attributeName="y1" values="0%;100%;0%" dur="5s" repeatCount="indefinite" />
    </linearGradient>
    
    <linearGradient id="light-blue-gradient" x1="0%" y1="0%" x2="100%" y2="100%">
      <stop offset="0%" stop-color="#669df6" />
      <stop offset="100%" stop-color="#5595f5" />
      <animate attributeName="x1" values="0%;100%;0%" dur="8s" repeatCount="indefinite" />
      <animate attributeName="y1" values="0%;100%;0%" dur="6s" repeatCount="indefinite" />
    </linearGradient>
    
    <!-- Data flow animations -->
    <circle id="data-particle" r="0.08" fill="#ffffff">
      <animate attributeName="opacity" values="0;1;0" dur="2s" repeatCount="indefinite" />
    </circle>
    
    <!-- Define the animated paths for neural connections -->
    <path id="neural-path1" d="M12.63,3.25 L16.9,3.25 L19.09,7 L17.5,7 L16.44,5.13 L14.5,5.13" stroke-width="0.05" stroke="#ffffff" fill="none">
      <animate attributeName="stroke-opacity" values="0.1;0.8;0.1" dur="3s" repeatCount="indefinite" />
    </path>
    
    <path id="neural-path2" d="M7.1,3.25 L11.38,3.25 L11.38,8.25 L9.64,8.25 L8.91,9.5 L11.38,9.5" stroke-width="0.05" stroke="#ffffff" fill="none">
      <animate attributeName="stroke-opacity" values="0.1;0.8;0.1" dur="2.5s" repeatCount="indefinite" />
    </path>
    
    <!-- Pulsing effect for nodes -->
    <radialGradient id="node-pulse" cx="50%" cy="50%" r="50%" fx="50%" fy="50%">
      <stop offset="0%" stop-color="#ffffff" stop-opacity="0.7">
        <animate attributeName="stop-opacity" values="0.7;0.2;0.7" dur="2s" repeatCount="indefinite" />
      </stop>
      <stop offset="100%" stop-color="#ffffff" stop-opacity="0">
        <animate attributeName="stop-opacity" values="0;0.2;0" dur="2s" repeatCount="indefinite" />
      </stop>
    </radialGradient>
  </defs>

  <g data-name="Product Icons">
    <!-- Background nodes to create depth -->
    <circle cx="12.63" cy="3.25" r="0.35" fill="url(#node-pulse)" opacity="0.7" />
    <circle cx="16.9" cy="3.25" r="0.35" fill="url(#node-pulse)" opacity="0.7" />
    <circle cx="7.1" cy="3.25" r="0.35" fill="url(#node-pulse)" opacity="0.7" />
    <circle cx="12" cy="12" r="0.35" fill="url(#node-pulse)" opacity="0.7" />
    <circle cx="12.63" cy="20.75" r="0.35" fill="url(#node-pulse)" opacity="0.7" />
    <circle cx="7.1" cy="20.75" r="0.35" fill="url(#node-pulse)" opacity="0.7" />
    <circle cx="16.9" cy="20.75" r="0.35" fill="url(#node-pulse)" opacity="0.7" />
    
    <!-- Main polygons with animated gradients -->
    <polygon class="cls-1" points="16.64 15.13 17.38 13.88 20.91 13.88 22 12 19.82 8.25 16.75 8.25 15.69 6.39 14.5 6.39 14.5 5.13 16.44 5.13 17.5 7 19.09 7 16.9 3.25 12.63 3.25 12.63 8.25 14.36 8.25 15.09 9.5 12.63 9.5 12.63 12 14.89 12 15.94 10.13 18.75 10.13 19.47 11.38 16.67 11.38 15.62 13.25 12.63 13.25 12.63 17.63 16.03 17.63 15.31 18.88 12.63 18.88 12.63 20.75 16.9 20.75 20.18 15.13 18.09 15.13 17.36 16.38 14.5 16.38 14.5 15.13 16.64 15.13"
      fill="url(#blue-gradient)" filter="url(#glow)">
      <animate attributeName="opacity" values="0.9;1;0.9" dur="3s" repeatCount="indefinite" />
    </polygon>
    
    <polygon class="cls-2" points="7.36 15.13 6.62 13.88 3.09 13.88 2 12 4.18 8.25 7.25 8.25 8.31 6.39 9.5 6.39 9.5 5.13 7.56 5.13 6.5 7 4.91 7 7.1 3.25 11.38 3.25 11.38 8.25 9.64 8.25 8.91 9.5 11.38 9.5 11.38 12 9.11 12 8.06 10.13 5.25 10.13 4.53 11.38 7.33 11.38 8.38 13.25 11.38 13.25 11.38 17.63 7.97 17.63 8.69 18.88 11.38 18.88 11.38 20.75 7.1 20.75 3.82 15.13 5.91 15.13 6.64 16.38 9.5 16.38 9.5 15.13 7.36 15.13"
      fill="url(#light-blue-gradient)" filter="url(#glow)">
      <animate attributeName="opacity" values="0.9;1;0.9" dur="3.5s" repeatCount="indefinite" />
    </polygon>
    
    <!-- Neural connections (thin lines) -->
    <use href="#neural-path1" />
    <use href="#neural-path2" />
    
    <!-- Additional neural paths -->
    <path d="M12.63,3.25 L12.63,20.75" stroke="#ffffff" stroke-width="0.05" fill="none" stroke-dasharray="0.2,0.2">
      <animate attributeName="stroke-opacity" values="0.1;0.5;0.1" dur="4s" repeatCount="indefinite" />
      <animate attributeName="stroke-dashoffset" values="0;1" dur="5s" repeatCount="indefinite" />
    </path>
    
    <path d="M7.1,3.25 L16.9,20.75" stroke="#ffffff" stroke-width="0.05" fill="none" stroke-dasharray="0.2,0.2">
      <animate attributeName="stroke-opacity" values="0.1;0.4;0.1" dur="3.7s" repeatCount="indefinite" />
      <animate attributeName="stroke-dashoffset" values="0;1" dur="4.5s" repeatCount="indefinite" />
    </path>
    
    <path d="M16.9,3.25 L7.1,20.75" stroke="#ffffff" stroke-width="0.05" fill="none" stroke-dasharray="0.2,0.2">
      <animate attributeName="stroke-opacity" values="0.1;0.4;0.1" dur="4.2s" repeatCount="indefinite" />
      <animate attributeName="stroke-dashoffset" values="0;1" dur="3.8s" repeatCount="indefinite" />
    </path>
    
    <!-- Moving particles along paths -->
    <g>
      <!-- Particle animation path 1 -->
      <use href="#data-particle">
        <animateMotion dur="3s" repeatCount="indefinite">
          <mpath href="#neural-path1" />
        </animateMotion>
      </use>
      
      <!-- Particle animation path 2 -->
      <use href="#data-particle">
        <animateMotion dur="2.5s" repeatCount="indefinite">
          <mpath href="#neural-path2" />
        </animateMotion>
      </use>
      
      <!-- More data particles -->
      <use href="#data-particle">
        <animateMotion path="M12.63,3.25 L12.63,20.75" dur="4s" repeatCount="indefinite" />
      </use>
      
      <use href="#data-particle">
        <animateMotion path="M7.1,3.25 L16.9,20.75" dur="3.5s" repeatCount="indefinite" />
      </use>
      
      <use href="#data-particle">
        <animateMotion path="M16.9,3.25 L7.1,20.75" dur="3.8s" repeatCount="indefinite" />
      </use>
      
      <!-- Additional particles for more neural activity -->
      <use href="#data-particle">
        <animateMotion path="M12.63,3.25 L12.63,20.75" dur="4.2s" begin="1s" repeatCount="indefinite" />
      </use>
      
      <use href="#data-particle">
        <animateMotion path="M7.1,3.25 L16.9,20.75" dur="3.7s" begin="0.5s" repeatCount="indefinite" />
      </use>
      
      <use href="#data-particle">
        <animateMotion path="M16.9,3.25 L7.1,20.75" dur="4s" begin="1.5s" repeatCount="indefinite" />
      </use>
    </g>
    
    <!-- Key junction points with pulsing effect -->
    <circle cx="12" cy="12" r="0.15" fill="#ffffff">
      <animate attributeName="r" values="0.15;0.25;0.15" dur="2s" repeatCount="indefinite" />
      <animate attributeName="opacity" values="0.5;1;0.5" dur="2s" repeatCount="indefinite" />
    </circle>
    
    <circle cx="14.5" cy="5.13" r="0.12" fill="#ffffff">
      <animate attributeName="r" values="0.12;0.2;0.12" dur="2.3s" repeatCount="indefinite" />
      <animate attributeName="opacity" values="0.5;1;0.5" dur="2.3s" repeatCount="indefinite" />
    </circle>
    
    <circle cx="9.5" cy="5.13" r="0.12" fill="#ffffff">
      <animate attributeName="r" values="0.12;0.2;0.12" dur="1.8s" repeatCount="indefinite" />
      <animate attributeName="opacity" values="0.5;1;0.5" dur="1.8s" repeatCount="indefinite" />
    </circle>
  </g>
</svg>